<svg width="48" height="48" viewBox="0 0 48 48" fill="none" xmlns="http://www.w3.org/2000/svg">
<rect width="48" height="48" rx="24" fill="#D4F3CF"/>
<path d="M14.873 23.5652H21.8296" stroke="#0F5319" stroke-linecap="round" stroke-linejoin="round"/>
<path fill-rule="evenodd" clip-rule="evenodd" d="M25.3079 30.152C25.3079 29.8758 25.5317 29.652 25.8079 29.652H31.7644C32.0405 29.652 32.2644 29.8758 32.2644 30.152V33.4998C32.2644 33.7759 32.0405 33.9998 31.7644 33.9998H25.8079C25.5317 33.9998 25.3079 33.7759 25.3079 33.4998V30.152Z" stroke="#0F5319" stroke-linecap="round" stroke-linejoin="round"/>
<path d="M28.7826 31.6088C28.9026 31.6088 29 31.7061 29 31.8262C29 31.9462 28.9026 32.0435 28.7826 32.0435C28.6625 32.0435 28.5652 31.9462 28.5652 31.8262C28.5652 31.7061 28.6625 31.6088 28.7826 31.6088" stroke="#0F5319" stroke-linecap="round" stroke-linejoin="round"/>
<path d="M24 20.5217L26.4348 18.093C26.7743 17.7536 27.3248 17.7536 27.6643 18.093L28.1739 18.6026C28.5135 18.9421 29.0639 18.9421 29.4035 18.6026L34 14" stroke="#0F5319" stroke-linecap="round" stroke-linejoin="round"/>
<path d="M30.5253 14H34.0035V17.4783" stroke="#0F5319" stroke-linecap="round" stroke-linejoin="round"/>
<path d="M27.0435 29.6523V28.348C27.0435 28.1079 27.2381 27.9132 27.4782 27.9132H33.5652C33.8053 27.9132 34 28.1079 34 28.348V31.8263C34 32.0664 33.8053 32.261 33.5652 32.261H32.2608" stroke="#0F5319" stroke-linecap="round" stroke-linejoin="round"/>
<path fill-rule="evenodd" clip-rule="evenodd" d="M18.7826 33.9999C21.424 33.9999 23.5652 31.8587 23.5652 29.2173C23.5652 26.5756 20.5217 23.5651 20.5217 23.5651L22.2174 21.1478C22.3893 20.902 22.3774 20.572 22.1881 20.3393C21.9989 20.1066 21.6782 20.0277 21.4026 20.146C20.8727 20.3731 20.258 20.2546 19.8504 19.8469L19.6148 19.6112C19.1571 19.1537 18.4151 19.1537 17.9574 19.6112L17.7217 19.8469C17.315 20.2528 16.7026 20.3711 16.1739 20.146C15.8978 20.0242 15.5743 20.1016 15.3832 20.3352C15.1922 20.5689 15.1805 20.9013 15.3548 21.1478L17.0435 23.5651C17.0435 23.5651 14 26.5756 14 29.2173C14 31.8587 16.1412 33.9999 18.7826 33.9999Z" stroke="#0F5319" stroke-linecap="round" stroke-linejoin="round"/>
<path d="M14.873 23.5652H22.6991" stroke="#0F5319" stroke-linecap="round" stroke-linejoin="round"/>
<path d="M18.7861 30.5225V31.392" stroke="#0F5319" stroke-linecap="round" stroke-linejoin="round"/>
<path d="M18.7861 26.1749V27.0445" stroke="#0F5319" stroke-linecap="round" stroke-linejoin="round"/>
<path d="M17.0435 30.5218H19.6522C20.1324 30.5218 20.5217 30.1325 20.5217 29.6523C20.5217 29.172 20.1324 28.7827 19.6522 28.7827H17.913C17.4328 28.7827 17.0435 28.3934 17.0435 27.9131C17.0435 27.4329 17.4328 27.0436 17.913 27.0436H20.5217" stroke="#0F5319" stroke-linecap="round" stroke-linejoin="round"/>
</svg>
