<?xml version="1.0" standalone="no"?>
<!DOCTYPE svg PUBLIC "-//W3C//DTD SVG 20010904//EN"
 "http://www.w3.org/TR/2001/REC-SVG-20010904/DTD/svg10.dtd">
<svg version="1.0" xmlns="http://www.w3.org/2000/svg"
 width="512.000000pt" height="512.000000pt" viewBox="0 0 512.000000 512.000000"
 preserveAspectRatio="xMidYMid meet">

<g transform="translate(0.000000,512.000000) scale(0.100000,-0.100000)"
fill="#000000" stroke="none">
<path d="M0 2560 l0 -2560 2560 0 2560 0 0 2560 0 2560 -2560 0 -2560 0 0
-2560z m2700 599 l0 -1351 -132 6 c-178 9 -370 25 -442 36 -56 9 -76 7 -64 -6
3 -3 149 -45 323 -95 l317 -89 307 85 c168 47 314 88 324 91 13 4 17 -1 17
-23 -1 -27 -16 -36 -285 -177 l-285 -150 0 -97 c0 -96 -1 -99 -31 -134 -17
-19 -36 -35 -42 -35 -6 0 -26 14 -44 32 l-33 32 0 100 0 101 -279 148 c-153
81 -283 147 -287 147 -4 0 92 -101 214 -223 l222 -224 0 -361 c0 -237 -3 -362
-10 -362 -16 0 -180 151 -252 232 -36 40 -88 103 -116 140 -98 132 -103 148
-227 708 l-114 515 -7 213 c-6 180 -5 212 7 212 8 0 29 -28 46 -62 l31 -63 7
70 c25 235 147 462 320 592 100 76 305 163 382 163 13 0 23 6 23 13 -1 27 91
1123 96 1145 2 12 7 22 9 22 3 0 5 -608 5 -1351z"/>
</g>
</svg>
