<?xml version="1.0" standalone="no"?>
<!DOCTYPE svg PUBLIC "-//W3C//DTD SVG 20010904//EN"
 "http://www.w3.org/TR/2001/REC-SVG-20010904/DTD/svg10.dtd">
<svg version="1.0" xmlns="http://www.w3.org/2000/svg"
 width="1200.000000pt" height="1200.000000pt" viewBox="0 0 1200.000000 1200.000000"
 preserveAspectRatio="xMidYMid meet">

<g transform="translate(0.000000,1200.000000) scale(0.100000,-0.100000)"
fill="#000000" stroke="none">
<path d="M0 6000 l0 -6000 6000 0 6000 0 0 6000 0 6000 -6000 0 -6000 0 0
-6000z m8068 3421 c29 -7 52 -15 50 -17 -2 -2 -44 1 -93 6 -262 28 -2734 -5
-3415 -45 -367 -22 -475 -39 -645 -102 -72 -27 -135 -62 -87 -49 12 3 31 9 42
12 11 4 20 2 20 -4 0 -6 -13 -13 -30 -17 -29 -6 -44 -20 -45 -40 -1 -5 -6 -9
-13 -8 -7 2 -12 -5 -12 -15 -1 -20 -24 -54 -34 -47 -3 3 -2 -1 4 -7 13 -15 13
-31 0 -23 -5 3 -22 -7 -38 -22 -33 -33 -80 -67 -105 -76 -10 -4 -16 -11 -12
-17 3 -5 0 -21 -8 -36 -12 -22 -15 -24 -20 -10 -5 12 -3 15 6 10 6 -4 8 -3 4
1 -14 15 -35 14 -42 -3 -3 -9 -2 -18 4 -20 7 -2 6 -8 -1 -16 -9 -9 -16 -10
-24 -2 -7 6 -10 14 -7 18 2 4 -3 5 -11 2 -9 -3 -13 -10 -10 -15 3 -5 -2 -9
-11 -9 -10 0 -15 5 -12 13 18 43 16 48 -6 16 -30 -41 -74 -144 -92 -211 -9
-34 -14 -177 -16 -503 -4 -442 -3 -455 16 -474 17 -16 40 -20 164 -25 229 -8
603 25 635 57 28 28 38 97 46 322 8 251 15 286 70 355 83 105 232 155 580 195
74 8 149 17 165 19 17 3 59 7 95 10 274 26 846 88 975 106 39 6 167 21 285 34
118 14 276 32 350 40 119 14 269 27 740 66 186 16 379 75 535 166 44 26 106
61 138 80 58 34 225 104 246 104 38 0 180 -171 226 -272 58 -127 63 -172 66
-584 1 -209 1 -434 1 -501 -2 -121 -2 -123 -32 -157 -56 -64 -99 -71 -385 -69
-137 1 -244 0 -237 -3 22 -10 12 -26 -13 -22 -19 4 -25 1 -23 -10 2 -12 -13
-18 -62 -27 -66 -11 -140 -41 -140 -56 0 -9 -39 -49 -72 -74 -17 -13 -18 -16
-5 -11 12 4 17 2 15 -6 -9 -25 -172 -31 -898 -32 -724 -1 -1100 10 -1229 35
-33 7 -64 21 -80 36 -14 14 -40 31 -57 39 -24 10 -33 21 -37 46 -8 52 14 76
70 80 27 2 -292 5 -707 6 -415 2 -922 4 -1125 5 -499 3 -460 -28 -460 357 0
439 6 711 17 769 5 30 27 95 48 143 36 84 37 88 14 74 -42 -28 -38 -17 7 18
24 19 53 49 63 67 19 32 19 32 0 25 -15 -6 -15 -3 5 18 14 14 21 32 18 40 -4
9 -2 16 3 16 6 0 8 22 5 55 -6 58 0 65 35 43 15 -9 24 -9 42 0 13 7 41 14 63
16 22 2 66 15 97 30 118 56 208 73 421 82 164 6 2932 21 3597 19 218 -1 331
-5 368 -14z m-4679 -1951 c3 -3 12 -14 20 -25 7 -11 0 -5 -18 13 -17 18 -31
38 -31 45 0 6 6 3 12 -8 6 -11 14 -22 17 -25z m5240 -1344 c49 -26 89 -81 97
-133 4 -26 4 -637 1 -1358 l-6 -1310 -25 -100 c-32 -122 -108 -280 -173 -357
-83 -99 -209 -180 -353 -226 -98 -31 -130 -36 -131 -20 0 7 -4 4 -9 -7 -6 -14
-9 -15 -10 -5 0 8 -8 25 -18 37 -13 17 -20 20 -32 12 -13 -9 -13 -10 2 -6 9 3
19 0 21 -7 4 -10 -1 -12 -15 -9 -18 5 -44 47 -40 66 1 4 -3 7 -9 7 -6 0 -9 9
-6 20 5 21 -8 29 -15 9 -2 -7 -21 4 -43 25 -40 36 -63 47 -49 24 6 -10 5 -10
-8 -1 -8 7 -19 9 -23 5 -5 -4 -5 -1 -1 6 4 7 12 10 17 7 5 -4 9 -1 9 4 0 6 -5
11 -11 11 -6 0 -8 7 -5 16 3 8 2 12 -4 9 -6 -3 -10 0 -10 7 0 11 -2 10 -9 0
-7 -11 -9 -11 -14 2 -3 8 -1 16 6 19 6 2 3 6 -7 10 -10 4 -15 3 -11 -3 3 -6 1
-10 -4 -10 -6 0 -11 5 -11 10 0 6 -5 10 -11 10 -20 0 -38 24 -40 53 0 6 -4 3
-9 -8 -8 -18 -9 -18 -9 -2 -1 10 -5 16 -10 12 -6 -3 -8 3 -6 13 2 11 -3 19
-11 19 -8 0 -13 -6 -10 -14 3 -7 1 -13 -5 -13 -6 0 -8 -4 -5 -8 3 -5 -2 -9
-10 -9 -8 0 -13 6 -10 13 3 8 1 16 -4 19 -15 9 -12 27 3 19 6 -4 4 2 -6 14
-11 11 -16 26 -12 31 4 8 -2 8 -20 1 -31 -12 -41 -13 -32 -3 4 3 -2 12 -13 20
-11 8 -20 21 -20 29 0 8 -8 14 -17 14 -15 0 -16 -2 -3 -10 8 -5 11 -10 5 -10
-5 0 -2 -5 8 -11 9 -5 17 -15 17 -21 0 -9 -3 -9 -12 0 -15 15 -31 16 -22 0 5
-7 3 -8 -5 -4 -7 5 -10 14 -7 22 3 8 -1 17 -9 20 -8 4 -15 17 -15 31 0 23 -1
23 -17 8 -13 -13 -13 -19 -4 -25 8 -5 9 -10 3 -14 -16 -9 -23 23 -11 47 l12
22 -23 -20 c-13 -11 -20 -14 -16 -7 4 6 2 12 -3 12 -6 0 -11 5 -11 11 0 5 5 7
10 4 6 -3 10 -1 10 5 0 7 -6 10 -14 7 -8 -3 -17 -1 -20 6 -3 7 -3 1 0 -13 6
-22 5 -23 -10 -8 -9 9 -16 23 -16 30 0 8 -5 6 -11 -5 -10 -16 -12 -16 -29 5
-11 13 -19 19 -20 15 0 -5 -7 -2 -15 7 -9 8 -21 13 -29 10 -7 -3 -13 2 -14 11
-1 8 -3 22 -4 30 -1 8 -5 12 -9 10 -12 -8 -18 22 -6 34 8 8 8 11 -1 11 -7 0
-12 -5 -12 -11 0 -5 -5 -7 -10 -4 -6 4 -17 2 -25 -5 -10 -8 -15 -8 -21 1 -5 8
-3 9 6 4 10 -6 12 -4 7 7 -3 9 0 22 6 29 9 9 7 9 -6 -1 -16 -12 -20 -12 -27 1
-7 10 -4 16 8 21 14 5 13 7 -5 7 -23 1 -43 21 -21 22 7 0 2 5 -12 10 -20 8
-22 12 -10 19 10 7 11 10 3 10 -8 0 -13 13 -13 30 0 17 -4 30 -8 30 -4 0 -8 9
-8 20 0 11 4 20 8 20 4 0 4 10 -1 23 -5 12 -9 73 -10 136 -1 63 -5 120 -9 125
-4 6 -5 33 -4 59 2 27 -2 55 -9 63 -6 8 -8 14 -3 14 5 0 9 114 9 252 0 139 3
316 7 393 8 160 15 476 23 973 3 247 8 351 17 370 33 68 156 102 468 132 63 5
151 15 195 20 44 6 176 15 294 20 117 5 216 12 219 15 3 3 -246 4 -553 3
l-560 -3 -47 -23 c-83 -42 -122 -114 -137 -258 -5 -43 -9 -62 -10 -42 -3 80
-31 31 -31 -55 l0 -28 -23 25 c-17 18 -29 23 -50 19 -23 -5 -26 -3 -21 13 4
12 -9 4 -36 -21 l-42 -40 4 130 c4 108 8 137 26 171 21 42 45 59 64 47 7 -3 8
-1 4 5 -3 6 2 16 13 21 25 14 42 14 19 0 -10 -5 -18 -15 -18 -20 0 -6 4 -8 8
-5 5 3 23 8 41 11 l31 5 -6 -80 c-5 -53 -3 -80 3 -80 6 0 14 17 18 37 14 77
68 149 130 174 48 19 236 24 908 27 533 2 632 0 656 -12z m-3711 -29 c26 -12
54 -35 68 -57 52 -79 57 -161 69 -1195 15 -1276 16 -1582 6 -1631 -5 -28 -11
-155 -12 -281 -1 -231 -5 -283 -19 -283 -5 0 -9 64 -9 141 -1 78 -3 145 -6
148 -2 4 -6 20 -9 36 -3 16 -11 32 -18 37 -10 6 -10 8 2 8 12 0 12 2 -1 15
-19 19 -56 27 -64 14 -10 -16 -25 -10 -19 9 4 12 2 12 -8 -3 -7 -12 -21 -19
-31 -17 -9 2 -20 -4 -23 -12 -3 -9 -10 -13 -15 -10 -5 3 -7 9 -4 14 3 5 0 12
-6 16 -7 4 -9 3 -6 -3 9 -15 -13 -22 -49 -16 -22 4 -26 2 -14 -6 11 -8 7 -9
-17 -5 -22 4 -33 3 -33 -5 0 -7 -10 -9 -27 -6 -16 3 -22 2 -15 -1 6 -3 9 -10
6 -15 -3 -6 -11 -3 -18 7 -11 14 -16 15 -35 4 -12 -6 -29 -9 -36 -6 -8 3 -16
0 -19 -7 -2 -7 -5 -4 -5 6 -1 19 -3 18 -46 -21 -13 -11 -15 -11 -15 3 0 13 -4
14 -22 4 -13 -7 -24 -12 -25 -11 -11 7 -33 0 -27 -9 4 -8 0 -8 -15 0 -14 8
-21 8 -21 1 0 -5 -4 -10 -10 -10 -5 0 -7 6 -4 14 3 7 -2 16 -10 19 -10 4 -13
1 -10 -7 7 -19 -7 -25 -35 -15 -16 6 -21 14 -17 27 4 11 0 9 -10 -5 -9 -13
-25 -23 -34 -23 -10 0 -21 -6 -23 -12 -3 -7 -6 -3 -6 10 -1 16 -7 22 -23 21
-18 -1 -19 -2 -5 -6 9 -2 15 -9 12 -14 -4 -5 -14 -5 -25 1 -13 7 -21 7 -26 -2
-4 -6 -3 -8 4 -4 6 3 13 2 16 -3 3 -5 -8 -11 -24 -13 -16 -3 -32 0 -34 6 -2 6
-5 3 -5 -7 -1 -10 -5 -15 -11 -12 -5 3 -10 0 -10 -8 0 -10 -7 -14 -22 -10 -19
4 -20 3 -8 -6 13 -10 10 -15 -6 -8 -3 1 -12 -11 -19 -28 -9 -20 -14 -24 -14
-12 -1 15 -5 13 -27 -10 -14 -15 -23 -22 -19 -15 8 17 -10 15 -24 -2 -9 -11
-9 -15 1 -19 7 -3 -2 -4 -20 -2 -22 1 -30 -1 -24 -7 12 -12 3 -50 -9 -42 -5 3
-6 10 -3 16 5 7 1 9 -9 5 -10 -3 -17 -2 -17 3 0 6 5 10 12 10 6 0 9 3 5 6 -7
7 -34 -7 -39 -21 -2 -5 -7 -9 -12 -7 -5 2 -4 -4 4 -12 9 -12 9 -16 1 -16 -7 0
-10 -4 -7 -9 3 -4 -6 -6 -21 -3 -16 3 -24 1 -20 -6 4 -5 0 -12 -8 -15 -8 -4
-13 -1 -11 6 1 7 1 9 -1 4 -3 -4 -10 -4 -15 -1 -7 5 -8 2 -3 -6 4 -7 2 -16 -6
-22 -10 -7 -9 -8 6 -3 11 3 16 3 12 -1 -4 -4 -2 -13 4 -21 9 -9 8 -13 0 -13
-6 0 -11 4 -11 10 0 5 -6 7 -13 4 -15 -5 -109 50 -186 109 -117 90 -243 279
-275 413 -12 48 -15 262 -20 1174 -6 1126 -2 1352 29 1563 17 111 27 137 56
137 12 0 17 4 13 11 -4 7 -21 9 -40 6 -41 -7 -43 4 -8 32 26 21 29 21 793 14
739 -6 768 -7 809 -26z m168 -73 c8 3 14 0 14 -7 0 -8 4 -6 10 3 7 11 10 11
10 2 0 -7 5 -10 10 -7 6 3 10 1 10 -6 0 -7 9 -2 19 10 l20 22 17 -26 c9 -14
21 -45 25 -68 9 -44 10 -276 2 -242 -6 25 -23 37 -42 30 -8 -3 -17 -1 -20 4
-4 5 -26 11 -50 14 l-45 4 -2 79 c-4 89 -11 167 -20 204 l-6 25 17 -23 c9 -13
23 -21 31 -18z m151 -901 c-2 -16 -4 -5 -4 22 0 28 2 40 4 28 2 -13 2 -35 0
-50z m3 -255 c0 -122 -2 -219 -5 -217 -9 10 -9 439 0 439 3 0 5 -100 5 -222z
m-3 -361 c-2 -23 -3 -1 -3 48 0 50 1 68 3 42 2 -26 2 -67 0 -90z m0 -79 c-3
-7 -5 -2 -5 12 0 14 2 19 5 13 2 -7 2 -19 0 -25z m0 -576 c-1 -97 -2 -17 -2
178 0 195 1 275 2 177 2 -97 2 -257 0 -355z m1707 218 c13 -480 18 -1385 8
-1375 -6 6 -12 314 -15 819 -4 445 -5 807 -3 805 2 -2 7 -114 10 -249z m216
-800 c0 -5 -5 -10 -11 -10 -5 0 -7 5 -4 10 3 6 8 10 11 10 2 0 4 -4 4 -10z
m-2195 -230 c3 -5 1 -10 -4 -10 -6 0 -11 5 -11 10 0 6 2 10 4 10 3 0 8 -4 11
-10z m2605 -40 c0 -5 -7 -7 -15 -4 -8 4 -12 10 -9 15 6 11 24 2 24 -11z
m-3505 -139 c3 -5 2 -12 -3 -15 -5 -3 -9 1 -9 9 0 17 3 19 12 6z m3670 -11 c3
-6 -1 -7 -9 -4 -18 7 -21 14 -7 14 6 0 13 -4 16 -10z m45 -24 c0 -2 -8 -10
-17 -17 -16 -13 -17 -12 -4 4 13 16 21 21 21 13z"/>
<path d="M3823 9203 c-21 -8 -15 -22 7 -16 11 3 20 9 20 14 0 10 -8 10 -27 2z"/>
<path d="M4470 7728 c-3 -3 -57 -8 -120 -12 -220 -13 -273 -35 -89 -37 670 -8
3385 1 3368 11 -9 5 -171 12 -360 15 -189 3 -445 8 -569 10 -390 7 -2225 18
-2230 13z"/>
<path d="M7763 7683 c9 -2 23 -2 30 0 6 3 -1 5 -18 5 -16 0 -22 -2 -12 -5z"/>
<path d="M7818 7655 c-3 -3 -494 -5 -1091 -5 -1067 0 -1087 -1 -1133 -20 -26
-11 -45 -22 -43 -24 2 -2 45 0 94 4 79 7 879 16 2005 22 195 1 321 4 280 7
-48 4 -66 9 -50 12 19 5 16 7 -16 8 -22 0 -43 -1 -46 -4z"/>
<path d="M6892 5870 c0 -14 2 -19 5 -12 2 6 2 18 0 25 -3 6 -5 1 -5 -13z"/>
<path d="M6910 5850 c0 -5 5 -10 10 -10 6 0 10 5 10 10 0 6 -4 10 -10 10 -5 0
-10 -4 -10 -10z"/>
<path d="M6740 5739 c0 -5 5 -7 10 -4 6 3 10 8 10 11 0 2 -4 4 -10 4 -5 0 -10
-5 -10 -11z"/>
<path d="M7265 3196 c17 -13 31 -23 33 -21 7 7 -33 45 -48 45 -9 0 -4 -9 15
-24z"/>
<path d="M3775 6089 c-194 -10 -299 -24 -316 -45 -9 -11 -8 -14 5 -14 21 0 20
-18 -4 -72 -45 -101 -58 -457 -52 -1428 6 -1141 15 -1525 37 -1575 9 -22 19
-42 20 -43 2 -2 32 15 67 39 82 55 191 167 252 260 27 41 56 85 65 99 10 14
41 72 70 130 30 58 57 110 61 115 4 6 21 36 38 68 34 61 36 75 67 392 9 88 32
268 50 400 49 340 52 358 75 475 12 58 24 116 26 130 37 191 122 467 196 640
87 201 144 252 328 295 41 10 92 28 112 41 21 13 44 24 52 24 38 0 14 41 -41
69 -26 13 -835 13 -1108 0z"/>
<path d="M3800 2750 c0 -5 5 -10 11 -10 5 0 7 5 4 10 -3 6 -8 10 -11 10 -2 0
-4 -4 -4 -10z"/>
</g>
</svg>
