<svg xmlns="http://www.w3.org/2000/svg" viewBox="0 0 48 48" fill="none">
  <rect width="48" height="48" rx="12" fill="#F7931A" fill-opacity="0.15"/>
  <circle cx="24" cy="24" r="14" fill="#F7931A"/>
  <path d="M30 20.5c.4-2.6-1.6-4-4.3-4.9l.9-3.6-2.2-.5-.9 3.5c-.6-.1-1.1-.3-1.7-.4l.9-3.5-2.2-.6-.9 3.6c-.5-.1-1-.2-1.4-.3l-3-.8-.6 2.3s1.6.4 1.6.4c.9.2 1 .8 1 1.2l-1 4c.1 0 .1 0 .2.1h-.2l-1.4 5.6c-.1.3-.4.6-.9.5 0 0-1.6-.4-1.6-.4l-1.1 2.5 2.8.7c.5.1 1 .3 1.5.4l-.9 3.6 2.2.5.9-3.6c.6.2 1.2.3 1.7.4l-.9 3.6 2.2.5.9-3.6c3.8.7 6.7.4 7.9-3 1-2.7-.1-4.3-2-5.3 1.5-.3 2.6-1.3 2.9-3.4zm-5.1 7.2c-.7 2.8-5.4 1.3-7 .9l1.2-5c1.5.4 6.5 1.1 5.8 4.1zm.7-7.2c-.6 2.6-4.6 1.3-5.9.9l1.1-4.5c1.3.3 5.5 1 4.8 3.6z" fill="white"/>
</svg>
