<svg xmlns="http://www.w3.org/2000/svg" viewBox="0 0 48 48" fill="none">
  <rect width="48" height="48" rx="12" fill="#F6851B" fill-opacity="0.15"/>
  <path d="M36.5 11L24.5 20l2.2-5.2L36.5 11z" fill="#E2761B" stroke="#E2761B" stroke-width="0.3"/>
  <path d="M11.5 11l11.9 9.1-2.1-5.3L11.5 11zM33 30.5l-3.2 4.9 6.8 1.9 2-6.6L33 30.5zM9.4 30.7l2 6.6 6.8-1.9-3.2-4.9-5.6.2z" fill="#E4761B" stroke="#E4761B" stroke-width="0.3"/>
  <path d="M17.8 22.1l-1.9 2.9 6.8.3-.2-7.5-4.7 4.3zM30.2 22.1l-4.8-4.4-.1 7.6 6.8-.3-1.9-2.9z" fill="#E4761B" stroke="#E4761B" stroke-width="0.3"/>
  <path d="M18.2 35.4l4.1-2-3.5-2.8-.6 4.8zM25.7 33.4l4.1 2-.6-4.8-3.5 2.8z" fill="#E4761B" stroke="#E4761B" stroke-width="0.3"/>
  <path d="M29.8 35.4l-4.1-2 .3 2.7-.1 1.1 3.9-1.8zM18.2 35.4l3.9 1.8-.1-1.1.3-2.7-4.1 2z" fill="#D7C1B3" stroke="#D7C1B3" stroke-width="0.3"/>
  <path d="M22.2 29.5l-3.4-1 2.4-1.1 1 2.1zM25.8 29.5l1-2.1 2.4 1.1-3.4 1z" fill="#233447" stroke="#233447" stroke-width="0.3"/>
  <path d="M18.2 35.4l.6-5.1-3.8.1 3.2 5zM29.2 30.3l.6 5.1 3.2-5-3.8-.1zM32.1 25l-6.8.3.6 3.2 1-2.1 2.4 1.1 2.8-2.5zM18.8 27.5l2.4-1.1 1 2.1.6-3.2-6.8-.3 2.8 2.5z" fill="#CD6116" stroke="#CD6116" stroke-width="0.3"/>
  <path d="M15.9 25l2.9 5.7-.1-2.8-2.8-2.9zM29.3 27.9l-.1 2.8 2.9-5.7-2.8 2.9zM22.7 25.3l-.6 3.2.8 4.1.2-5.4-.4-1.9zM25.3 25.3l-.4 1.9.2 5.4.8-4.1-.6-3.2z" fill="#E4751F" stroke="#E4751F" stroke-width="0.3"/>
  <path d="M25.9 28.5l-.8 4.1.6.4 3.5-2.8.1-2.8-3.4 1.1zM18.8 27.4l.1 2.8 3.5 2.8.6-.4-.8-4.1-3.4-1.1z" fill="#F6851B" stroke="#F6851B" stroke-width="0.3"/>
  <path d="M26 37.2l.1-1.1-.3-.3h-3.6l-.3.3.1 1.1-3.9-1.8 1.4 1.1 2.8 1.9h3.7l2.8-1.9 1.4-1.1-3.9 1.8z" fill="#C0AD9E" stroke="#C0AD9E" stroke-width="0.3"/>
  <path d="M25.7 33.4l-.6-.4h-2.2l-.6.4-.3 2.7.3-.3h3.6l.3.3-.5-2.7z" fill="#161616" stroke="#161616" stroke-width="0.3"/>
  <path d="M37 11.6l1-5-.6-3.6-12 8.8 4.6 3.9 6.5 1.9 1.4-1.7-.6-.4 1-1-.8-.6 1-.7-.6-.5-1.5 1.1L37 11.6zM10 6.6l1 5-1.6-1.2-.7.5 1 .7-.8.6 1 1-.6.4 1.4 1.7 6.5-1.9 4.6-3.9L10 6.6z" fill="#763D16" stroke="#763D16" stroke-width="0.3"/>
</svg>
