<svg xmlns="http://www.w3.org/2000/svg" viewBox="0 0 48 48" fill="none">
  <rect width="48" height="48" rx="12" fill="#3375BB" fill-opacity="0.15"/>
  <circle cx="24" cy="24" r="14" fill="#3375BB"/>
  <path d="M24 10c-7.7 0-14 6.3-14 14s6.3 14 14 14 14-6.3 14-14S31.7 10 24 10zm0 2c1.5 0 2.9.3 4.2.7L24 17.5l-4.2-4.8C21.1 12.3 22.5 12 24 12zm-6.5 2.1L22 19.2l-5.8-.5-1.3-2.2c.8-.8 1.8-1.6 2.8-2.4h-.2zm13 0c1 .8 1.9 1.6 2.8 2.4l-1.3 2.2-5.8.5 4.5-5.1h-.2zM14 18.5l1.5 2.5-2.5 3c-.3-1-.5-2-.5-3 .1-1 .3-1.8.5-2.5zm20 0c.2.7.4 1.5.4 2.5s-.2 2-.5 3l-2.4-3 2.5-2.5zM16.8 22l6 .5L20 28l-5.2-1.5 2-4.5zm14.5 0l2 4.5L28 28l-2.8-5.5 6.1-.5zM24 23.5l3 5.5-3 2-3-2 3-5.5zm-8.8 5.2l4.8 1.4L18 34c-1.4-1.4-2.3-3.2-2.8-5.3zm17.6 0c-.5 2.1-1.4 3.9-2.8 5.3l-2-3.9 4.8-1.4zM21 32l3 2 3-2-1 3.5c-.6.2-1.3.3-2 .3s-1.4-.1-2-.3L21 32z" fill="white"/>
</svg>
